<svg width="24" height="24" viewBox="0 0 24 24" fill="none" xmlns="http://www.w3.org/2000/svg">
<path d="M16.9331 2.99768C18.2741 2.99768 19.5641 3.52768 20.5131 4.47868C21.4631 5.42768 21.9941 6.70768 21.9941 8.04768V15.9477C21.9941 18.7377 19.7241 20.9977 16.9331 20.9977H7.05414C4.26314 20.9977 1.99414 18.7377 1.99414 15.9477V8.04768C1.99414 5.25768 4.25314 2.99768 7.05414 2.99768H16.9331ZM18.0641 8.19768C17.8541 8.18668 17.6541 8.25768 17.5031 8.39768L12.9941 11.9977C12.4141 12.4787 11.5831 12.4787 10.9941 11.9977L6.49414 8.39768C6.18314 8.16768 5.75314 8.19768 5.49414 8.46768C5.22414 8.73768 5.19414 9.16768 5.42314 9.46768L5.55414 9.59768L10.1041 13.1477C10.6641 13.5877 11.3431 13.8277 12.0541 13.8277C12.7631 13.8277 13.4541 13.5877 14.0131 13.1477L18.5241 9.53768L18.6041 9.45768C18.8431 9.16768 18.8431 8.74768 18.5931 8.45768C18.4541 8.30868 18.2631 8.21768 18.0641 8.19768Z" fill="black"/>
</svg>
