<svg width="24" height="24" viewBox="0 0 24 24" fill="none" xmlns="http://www.w3.org/2000/svg">
<path fill-rule="evenodd" clip-rule="evenodd" d="M18.9784 19.0954C18.003 16.0109 15.3822 14.2436 11.7851 14.2436H11.7592C8.15253 14.2234 5.51829 16.0033 4.54101 19.0954L4.42773 19.4545L4.74837 19.6503C6.62805 20.7965 8.97237 21.3773 11.7141 21.3773C11.7448 21.3773 11.7755 21.3773 11.8053 21.3773C14.5854 21.3773 16.8645 20.8119 18.771 19.6503L19.0917 19.4545L18.9784 19.0954Z" fill="black"/>
<path fill-rule="evenodd" clip-rule="evenodd" d="M11.76 12.1046C14.3741 12.1046 16.5015 9.9782 16.5015 7.36412C16.5015 4.74908 14.3741 2.62268 11.76 2.62268C9.14593 2.62268 7.01953 4.74908 7.01953 7.36412C7.01953 9.9782 9.14593 12.1046 11.76 12.1046Z" fill="black"/>
</svg>
